<svg xmlns="http://www.w3.org/2000/svg" xmlns:xlink="http://www.w3.org/1999/xlink" version="1.1" id="Layer_1" x="0px" y="0px" viewBox="0 0 512 512" style="enable-background:new 0 0 512 512;" xml:space="preserve">
<g>
	<path d="M256,31C131.7,31,31,131.7,31,256s100.7,225,225,225s225-100.7,225-225S380.3,31,256,31z M143.5,143.5h225   c4,0,7.9,0.9,11.5,2.5L256,290.6L132,146C135.6,144.3,139.5,143.5,143.5,143.5z M115.4,340.4V171.6c0-0.6,0-1.2,0.1-1.8l82.5,96.2   l-81.6,81.6C115.7,345.3,115.4,342.8,115.4,340.4z M368.5,368.5h-225c-2.5,0-4.9-0.3-7.3-1l80-80l39.7,46.3l39.7-46.3l80,80   C373.5,368.2,371,368.5,368.5,368.5L368.5,368.5z M396.6,340.4c0,2.5-0.3,4.9-1,7.3l-81.6-81.6l82.5-96.2c0,0.6,0.1,1.2,0.1,1.8   V340.4z" style="&#10;    fill: white;&#10;"/>
</g>
</svg>