<svg xmlns="http://www.w3.org/2000/svg" xmlns:xlink="http://www.w3.org/1999/xlink" version="1.1" id="Layer_1" x="0px" y="0px" viewBox="0 0 512 512" style="enable-background:new 0 0 512 512;" xml:space="preserve">
<g>
	<path d="M493.9,298.7c2.6-14.4,4-29.1,4-43.8c0-32.6-6.4-64.3-19-94.1c-12.2-28.8-29.6-54.7-51.8-76.9   c-22-22.1-48.1-39.7-76.9-51.8c-29.8-12.6-61.4-19-94.1-19c-15.4,0-30.8,1.5-45.8,4.4c-20.7-11-43.8-16.7-67.3-16.8   c-38.2,0-74.2,14.9-101.2,41.9C15,69.3-0.1,105.8,0,143.8c0,24.3,6.3,48.3,18,69.4c-2.4,13.7-3.6,27.7-3.6,41.7   c0,32.6,6.4,64.3,19,94.1c12.2,28.8,29.6,54.7,51.8,76.9c22.2,22.2,48.1,39.6,76.9,51.8c29.8,12.6,61.4,19,94.1,19   c14.2,0,28.4-1.3,42.4-3.8c21.4,12.1,45.6,18.6,70.4,18.6c38.2,0,74.2-14.8,101.2-41.9c27.1-27,41.9-63,41.9-101.2   C512.1,343.9,505.8,319.9,493.9,298.7z M257.1,402.9c-85.9,0-124.3-42.2-124.3-73.9c0-16.3,12-27.6,28.5-27.6   c36.7,0,27.3,52.8,95.8,52.8c35.1,0,54.5-19.1,54.5-38.6c0-11.7-5.8-24.8-28.9-30.5l-76.4-19.1c-61.5-15.4-72.7-48.7-72.7-79.9   c0-64.9,61.1-89.3,118.5-89.3c52.9,0,115.2,29.3,115.2,68.2c0,16.7-14.5,26.4-31,26.4c-31.4,0-25.6-43.4-88.8-43.4   c-31.4,0-48.7,14.2-48.7,34.5c0,20.3,24.8,26.8,46.3,31.7l56.6,12.5c62,13.8,77.6,50,77.6,84C379.4,363.5,338.9,402.9,257.1,402.9z   " style="&#10;    fill: white;&#10;"/>
</g>
</svg>