<svg xmlns="http://www.w3.org/2000/svg" xmlns:xlink="http://www.w3.org/1999/xlink" version="1.1" id="Layer_1" x="0px" y="0px" viewBox="0 0 512 512" style="enable-background:new 0 0 512 512;" xml:space="preserve">
<g id="XMLID_1_">
	<path id="XMLID_5_" d="M256,0C114.5,0,0,114.5,0,256s114.5,256,256,256s256-114.5,256-256S397.5,0,256,0z M381.7,175.9l-41.9,197.4   c-2.8,14-11.2,17.7-23.3,11.2L252.3,337l-30.7,29.8c-3.7,3.7-6.5,6.5-13,6.5c-8.4,0-6.5-2.8-9.3-11.2l-21.4-71.7l-63.3-19.5   c-14-4.7-14-14,2.8-20.5l246.7-95C375.2,150.8,386.3,158.3,381.7,175.9z" style="&#10;    fill: white;&#10;"/>
</g>
</svg>